<svg height="1612.5" viewBox="-37.5 -7.5 1979 1732.5" width="1690" xmlns="http://www.w3.org/2000/svg">
<style>
.species { font: italic 12px serif; fill: orange; }
</style>
<style>
.gene_0 { font: 10px serif; fill:rgb(34, 121, 150); }
</style>
<g transform="translate(  -37.5 1605) rotate(-90 0 0 ) ">
<path d="M350.625,190.5 L350.625,-7.5 L779.8125,-7.5 M485.625,190.5 L485.625,127.5 L820.3125,127.5" fill="none" opacity="0.9" stroke="pink" stroke-width="6"/>
<path d="M206.25,445.5 L206.25,187.5 L347.625,187.5 M281.25,445.5 L281.25,382.5 L418.125,382.5" fill="none" opacity="0.9" stroke="pink" stroke-width="6"/>
<path d="M75,580.5 L75,442.5 L203.25,442.5 M135,580.5 L135,517.5 L243.75,517.5" fill="none" opacity="0.9" stroke="pink" stroke-width="6"/>
<path d="M-37.5,753 L-37.5,577.5 L72,577.5 M37.5,753 L37.5,637.5 L105,637.5" fill="none" opacity="0.9" stroke="pink" stroke-width="6"/>
<path d="M-37.5,750 L-37.5,855 L37.5,855 L37.5,750" fill="none" opacity="0.9" stroke="pink" stroke-width="6"/>
<text class="species" transform="rotate(90 0,802.5)" x="-15" y="755">
Hsapiens
</text>
<path d="M232.5,783 L232.5,577.5 L138,577.5 M187.5,783 L187.5,637.5 L105,637.5" fill="none" opacity="0.9" stroke="pink" stroke-width="6"/>
<path d="M187.5,780 L187.5,825 L232.5,825 L232.5,780" fill="none" opacity="0.9" stroke="pink" stroke-width="6"/>
<text class="species" transform="rotate(90 210,802.5)" x="195" y="770">
Bbelcheri
</text>
<path d="M420,760.5 L420,442.5 L284.25,442.5 M345,760.5 L345,517.5 L243.75,517.5" fill="none" opacity="0.9" stroke="pink" stroke-width="6"/>
<path d="M345,757.5 L345,847.5 L420,847.5 L420,757.5" fill="none" opacity="0.9" stroke="pink" stroke-width="6"/>
<text class="species" transform="rotate(90 382.5,802.5)" x="367.5" y="755">
Aplanci
</text>
<path d="M637.5,753 L637.5,187.5 L488.625,187.5 M547.5,753 L547.5,382.5 L418.125,382.5" fill="none" opacity="0.9" stroke="pink" stroke-width="6"/>
<path d="M547.5,750 L547.5,855 L637.5,855 L637.5,750" fill="none" opacity="0.9" stroke="pink" stroke-width="6"/>
<text class="species" transform="rotate(90 592.5,802.5)" x="577.5" y="747.5">
Myessoensis
</text>
<path d="M1260,250.5 L1260,-7.5 L860.8125,-7.5 M1185,250.5 L1185,127.5 L820.3125,127.5" fill="none" opacity="0.9" stroke="pink" stroke-width="6"/>
<path d="M937.5,385.5 L937.5,247.5 L1182,247.5 M1012.5,385.5 L1012.5,322.5 L1222.5,322.5" fill="none" opacity="0.9" stroke="pink" stroke-width="6"/>
<path d="M720,745.5 L720,382.5 L934.5,382.5 M810,745.5 L810,457.5 L975,457.5" fill="none" opacity="0.9" stroke="pink" stroke-width="6"/>
<path d="M720,742.5 L720,862.5 L810,862.5 L810,742.5" fill="none" opacity="0.9" stroke="pink" stroke-width="6"/>
<text class="species" transform="rotate(90 765,802.5)" x="750" y="747.5">
Nvectensis
</text>
<path d="M1260,685.5 L1260,382.5 L1015.5,382.5 M1110,685.5 L1110,457.5 L975,457.5" fill="none" opacity="0.9" stroke="pink" stroke-width="6"/>
<path d="M1110,682.5 L1110,922.5 L1260,922.5 L1260,682.5" fill="none" opacity="0.9" stroke="pink" stroke-width="6"/>
<text class="species" transform="rotate(90 1185,802.5)" x="1170" y="717.5">
Dgigantea
</text>
<path d="M1515,753 L1515,247.5 L1263,247.5 M1425,753 L1425,322.5 L1222.5,322.5" fill="none" opacity="0.9" stroke="pink" stroke-width="6"/>
<path d="M1425,750 L1425,855 L1515,855 L1515,750" fill="none" opacity="0.9" stroke="pink" stroke-width="6"/>
<text class="species" transform="rotate(90 1470,802.5)" x="1455" y="747.5">
Hvulgaris
</text>
<path d="M790.3125,-6 l-6,-6 l12,0 z" fill="rgb(34, 121, 150)" opacity="0.9" stroke="rgb(34, 121, 150)" stroke-width="1"/>
<path d="M787.3125,-3 l0,6 l6,0 l0,-6 z" fill="rgb(34, 121, 150)" opacity="0.9" stroke="rgb(34, 121, 150)" stroke-width="3"/>
<path d="M805.3125,15 L805.3125,0 L790.3125,0" fill="none" opacity="0.9" stroke="rgb(34, 121, 150)" stroke-width="3"/>
<path d="M802.3125,12 l0,6 l6,0 l0,-6 z" fill="rgb(34, 121, 150)" opacity="0.9" stroke="rgb(34, 121, 150)" stroke-width="3"/>
<path d="M820.3125,30 L820.3125,15 L805.3125,15" fill="none" opacity="0.9" stroke="rgb(34, 121, 150)" stroke-width="3"/>
<path d="M817.3125,27 l0,6 l6,0 l0,-6 z" fill="rgb(34, 121, 150)" opacity="0.9" stroke="rgb(34, 121, 150)" stroke-width="3"/>
<path d="M835.3125,45 L835.3125,30 L820.3125,30" fill="none" opacity="0.9" stroke="rgb(34, 121, 150)" stroke-width="3"/>
<path d="M832.3125,42 l0,6 l6,0 l0,-6 z" fill="rgb(34, 121, 150)" opacity="0.9" stroke="rgb(34, 121, 150)" stroke-width="3"/>
<path d="M850.3125,60 L850.3125,45 L835.3125,45" fill="none" opacity="0.9" stroke="rgb(34, 121, 150)" stroke-width="3"/>
<circle cx="850.3125" cy="60" fill="rgb(34, 121, 150)" opacity="0.9" r="3" stroke="rgb(34, 121, 150)" stroke-width="1"/>
<path d="M358.125,195 L358.125,60 L850.3125,60" fill="none" opacity="0.9" stroke="rgb(34, 121, 150)" stroke-width="3"/>
<path d="M355.125,192 l0,6 l6,0 l0,-6 z" fill="rgb(34, 121, 150)" opacity="0.9" stroke="rgb(34, 121, 150)" stroke-width="3"/>
<path d="M358.125,210 L358.125,195 L358.125,195" fill="none" opacity="0.9" stroke="rgb(34, 121, 150)" stroke-width="3"/>
<path d="M355.125,207 l0,6 l6,0 l0,-6 z" fill="rgb(34, 121, 150)" opacity="0.9" stroke="rgb(34, 121, 150)" stroke-width="3"/>
<path d="M358.125,225 L358.125,210 L358.125,210" fill="none" opacity="0.9" stroke="rgb(34, 121, 150)" stroke-width="3"/>
<circle cx="358.125" cy="225" fill="rgb(34, 121, 150)" opacity="0.9" r="3" stroke="rgb(34, 121, 150)" stroke-width="1"/>
<path d="M213.75,450 L213.75,225 L358.125,225" fill="none" opacity="0.9" stroke="rgb(34, 121, 150)" stroke-width="3"/>
<circle cx="213.75" cy="450" fill="rgb(34, 121, 150)" opacity="0.9" r="3" stroke="rgb(34, 121, 150)" stroke-width="1"/>
<path d="M82.5,585 L82.5,450 L213.75,450" fill="none" opacity="0.9" stroke="rgb(34, 121, 150)" stroke-width="3"/>
<circle cx="82.5" cy="585" fill="rgb(34, 121, 150)" opacity="0.9" r="3" stroke="rgb(34, 121, 150)" stroke-width="1"/>
<path d="M225,825 L225,585 L82.5,585" fill="none" opacity="0.9" stroke="rgb(34, 121, 150)" stroke-width="3"/>
<path d="M224.5,824.5 l0,1 l1,0 l0,-1 z" fill="red" opacity="0.9" stroke="red" stroke-width="3"/>
<text class="gene_0" transform="rotate(90 220,840)" x="220" y="840">
Bbelcheri.XP_019635106.1
</text>
<path d="M-30,855 L-30,585 L82.5,585" fill="none" opacity="0.9" stroke="rgb(34, 121, 150)" stroke-width="3"/>
<path d="M-30.5,854.5 l0,1 l1,0 l0,-1 z" fill="red" opacity="0.9" stroke="red" stroke-width="3"/>
<text class="gene_0" transform="rotate(90 -35,870)" x="-35" y="870">
Hsapiens.NP_003733.2_bile_salt_export_pump
</text>
<path d="M412.5,765 L412.5,450 L213.75,450" fill="none" opacity="0.9" stroke="rgb(34, 121, 150)" stroke-width="3"/>
<path d="M412.5,761 l0,8 M408.5,765 l8,0" fill="rgb(34, 121, 150)" opacity="0.9" stroke="rgb(34, 121, 150)" stroke-width="2" transform="rotate(45 412.5 765)"/>
<path d="M630,757.5 L630,225 L358.125,225" fill="none" opacity="0.9" stroke="rgb(34, 121, 150)" stroke-width="3"/>
<path d="M630,753.5 l0,8 M626,757.5 l8,0" fill="rgb(34, 121, 150)" opacity="0.9" stroke="rgb(34, 121, 150)" stroke-width="2" transform="rotate(45 630 757.5)"/>
<path d="M373.125,240 L373.125,210 L358.125,210" fill="none" opacity="0.9" stroke="rgb(34, 121, 150)" stroke-width="3"/>
<path d="M370.125,237 l0,6 l6,0 l0,-6 z" fill="rgb(34, 121, 150)" opacity="0.9" stroke="rgb(34, 121, 150)" stroke-width="3"/>
<path d="M373.125,255 L373.125,240 L373.125,240" fill="none" opacity="0.9" stroke="rgb(34, 121, 150)" stroke-width="3"/>
<path d="M370.125,252 l0,6 l6,0 l0,-6 z" fill="rgb(34, 121, 150)" opacity="0.9" stroke="rgb(34, 121, 150)" stroke-width="3"/>
<path d="M373.125,270 L373.125,255 L373.125,255" fill="none" opacity="0.9" stroke="rgb(34, 121, 150)" stroke-width="3"/>
<circle cx="373.125" cy="270" fill="rgb(34, 121, 150)" opacity="0.9" r="3" stroke="rgb(34, 121, 150)" stroke-width="1"/>
<path d="M228.75,465 L228.75,270 L373.125,270" fill="none" opacity="0.9" stroke="rgb(34, 121, 150)" stroke-width="3"/>
<circle cx="228.75" cy="465" fill="rgb(34, 121, 150)" opacity="0.9" r="3" stroke="rgb(34, 121, 150)" stroke-width="1"/>
<path d="M97.5,600 L97.5,465 L228.75,465" fill="none" opacity="0.9" stroke="rgb(34, 121, 150)" stroke-width="3"/>
<circle cx="97.5" cy="600" fill="rgb(34, 121, 150)" opacity="0.9" r="3" stroke="rgb(34, 121, 150)" stroke-width="1"/>
<path d="M-15,772.5 L-15,600 L97.5,600" fill="none" opacity="0.9" stroke="rgb(34, 121, 150)" stroke-width="3"/>
<path d="M-18,769.5 l0,6 l6,0 l0,-6 z" fill="rgb(34, 121, 150)" opacity="0.9" stroke="rgb(34, 121, 150)" stroke-width="3"/>
<path d="M-15,787.5 L-15,772.5 L-15,772.5" fill="none" opacity="0.9" stroke="rgb(34, 121, 150)" stroke-width="3"/>
<path d="M-18,784.5 l0,6 l6,0 l0,-6 z" fill="rgb(34, 121, 150)" opacity="0.9" stroke="rgb(34, 121, 150)" stroke-width="3"/>
<path d="M-15,855 L-15,787.5 L-15,787.5" fill="none" opacity="0.9" stroke="rgb(34, 121, 150)" stroke-width="3"/>
<path d="M-15.5,854.5 l0,1 l1,0 l0,-1 z" fill="red" opacity="0.9" stroke="red" stroke-width="3"/>
<text class="gene_0" transform="rotate(90 -20,870)" x="-20" y="870">
Hsapiens.NP_000434.1_phosphatidylcholine_translocator_ABCB4_isoform_A
</text>
<path d="M0,855 L0,787.5 L-15,787.5" fill="none" opacity="0.9" stroke="rgb(34, 121, 150)" stroke-width="3"/>
<path d="M-0.5,854.5 l0,1 l1,0 l0,-1 z" fill="red" opacity="0.9" stroke="red" stroke-width="3"/>
<text class="gene_0" transform="rotate(90 -5,870)" x="-5" y="870">
Hsapiens.NP_001335875.1_ATP-dependent_translocase_ABCB1_isoform_2
</text>
<path d="M15,855 L15,772.5 L-15,772.5" fill="none" opacity="0.9" stroke="rgb(34, 121, 150)" stroke-width="3"/>
<path d="M14.5,854.5 l0,1 l1,0 l0,-1 z" fill="red" opacity="0.9" stroke="red" stroke-width="3"/>
<text class="gene_0" transform="rotate(90 10,870)" x="10" y="870">
Hsapiens.NP_001157413.1_ATP-binding_cassette_sub-family_B_member_5_isoform_1
</text>
<path d="M210,802.5 L210,600 L97.5,600" fill="none" opacity="0.9" stroke="rgb(34, 121, 150)" stroke-width="3"/>
<path d="M210,798.5 l0,8 M206,802.5 l8,0" fill="rgb(34, 121, 150)" opacity="0.9" stroke="rgb(34, 121, 150)" stroke-width="2" transform="rotate(45 210 802.5)"/>
<path d="M397.5,780 L397.5,465 L228.75,465" fill="none" opacity="0.9" stroke="rgb(34, 121, 150)" stroke-width="3"/>
<path d="M397.5,776 l0,8 M393.5,780 l8,0" fill="rgb(34, 121, 150)" opacity="0.9" stroke="rgb(34, 121, 150)" stroke-width="2" transform="rotate(45 397.5 780)"/>
<path d="M615,772.5 L615,270 L373.125,270" fill="none" opacity="0.9" stroke="rgb(34, 121, 150)" stroke-width="3"/>
<path d="M615,768.5 l0,8 M611,772.5 l8,0" fill="rgb(34, 121, 150)" opacity="0.9" stroke="rgb(34, 121, 150)" stroke-width="2" transform="rotate(45 615 772.5)"/>
<path d="M388.125,285 L388.125,255 L373.125,255" fill="none" opacity="0.9" stroke="rgb(34, 121, 150)" stroke-width="3"/>
<circle cx="388.125" cy="285" fill="rgb(34, 121, 150)" opacity="0.9" r="3" stroke="rgb(34, 121, 150)" stroke-width="1"/>
<path d="M243.75,480 L243.75,285 L388.125,285" fill="none" opacity="0.9" stroke="rgb(34, 121, 150)" stroke-width="3"/>
<circle cx="243.75" cy="480" fill="rgb(34, 121, 150)" opacity="0.9" r="3" stroke="rgb(34, 121, 150)" stroke-width="1"/>
<path d="M367.5,795 L367.5,480 L243.75,480" fill="none" opacity="0.9" stroke="rgb(34, 121, 150)" stroke-width="3"/>
<path d="M364.5,792 l0,6 l6,0 l0,-6 z" fill="rgb(34, 121, 150)" opacity="0.9" stroke="rgb(34, 121, 150)" stroke-width="3"/>
<path d="M382.5,847.5 L382.5,795 L367.5,795" fill="none" opacity="0.9" stroke="rgb(34, 121, 150)" stroke-width="3"/>
<path d="M382,847 l0,1 l1,0 l0,-1 z" fill="red" opacity="0.9" stroke="red" stroke-width="3"/>
<text class="gene_0" transform="rotate(90 377.5,862.5)" x="377.5" y="862.5">
Aplanci.XP_022083090.1
</text>
<path d="M367.5,847.5 L367.5,795 L367.5,795" fill="none" opacity="0.9" stroke="rgb(34, 121, 150)" stroke-width="3"/>
<path d="M367,847 l0,1 l1,0 l0,-1 z" fill="red" opacity="0.9" stroke="red" stroke-width="3"/>
<text class="gene_0" transform="rotate(90 362.5,862.5)" x="362.5" y="862.5">
Aplanci.XP_022082997.1
</text>
<path d="M112.5,615 L112.5,480 L243.75,480" fill="none" opacity="0.9" stroke="rgb(34, 121, 150)" stroke-width="3"/>
<path d="M112.5,611 l0,8 M108.5,615 l8,0" fill="rgb(34, 121, 150)" opacity="0.9" stroke="rgb(34, 121, 150)" stroke-width="2" transform="rotate(45 112.5 615)"/>
<path d="M585,787.5 L585,285 L388.125,285" fill="none" opacity="0.9" stroke="rgb(34, 121, 150)" stroke-width="3"/>
<path d="M582,784.5 l0,6 l6,0 l0,-6 z" fill="rgb(34, 121, 150)" opacity="0.9" stroke="rgb(34, 121, 150)" stroke-width="3"/>
<path d="M600,855 L600,787.5 L585,787.5" fill="none" opacity="0.9" stroke="rgb(34, 121, 150)" stroke-width="3"/>
<path d="M599.5,854.5 l0,1 l1,0 l0,-1 z" fill="red" opacity="0.9" stroke="red" stroke-width="3"/>
<text class="gene_0" transform="rotate(90 595,870)" x="595" y="870">
Myessoensis.XP_021367207.1
</text>
<path d="M585,855 L585,787.5 L585,787.5" fill="none" opacity="0.9" stroke="rgb(34, 121, 150)" stroke-width="3"/>
<path d="M584.5,854.5 l0,1 l1,0 l0,-1 z" fill="red" opacity="0.9" stroke="red" stroke-width="3"/>
<text class="gene_0" transform="rotate(90 580,870)" x="580" y="870">
Myessoensis.XP_021353531.1
</text>
<path d="M403.125,300 L403.125,240 L373.125,240" fill="none" opacity="0.9" stroke="rgb(34, 121, 150)" stroke-width="3"/>
<circle cx="403.125" cy="300" fill="rgb(34, 121, 150)" opacity="0.9" r="3" stroke="rgb(34, 121, 150)" stroke-width="1"/>
<path d="M258.75,495 L258.75,300 L403.125,300" fill="none" opacity="0.9" stroke="rgb(34, 121, 150)" stroke-width="3"/>
<circle cx="258.75" cy="495" fill="rgb(34, 121, 150)" opacity="0.9" r="3" stroke="rgb(34, 121, 150)" stroke-width="1"/>
<path d="M127.5,630 L127.5,495 L258.75,495" fill="none" opacity="0.9" stroke="rgb(34, 121, 150)" stroke-width="3"/>
<circle cx="127.5" cy="630" fill="rgb(34, 121, 150)" opacity="0.9" r="3" stroke="rgb(34, 121, 150)" stroke-width="1"/>
<path d="M195,825 L195,630 L127.5,630" fill="none" opacity="0.9" stroke="rgb(34, 121, 150)" stroke-width="3"/>
<path d="M194.5,824.5 l0,1 l1,0 l0,-1 z" fill="red" opacity="0.9" stroke="red" stroke-width="3"/>
<text class="gene_0" transform="rotate(90 190,840)" x="190" y="840">
Bbelcheri.XP_019635109.1
</text>
<path d="M30,847.5 L30,630 L127.5,630" fill="none" opacity="0.9" stroke="rgb(34, 121, 150)" stroke-width="3"/>
<path d="M30,843.5 l0,8 M26,847.5 l8,0" fill="rgb(34, 121, 150)" opacity="0.9" stroke="rgb(34, 121, 150)" stroke-width="2" transform="rotate(45 30 847.5)"/>
<path d="M352.5,840 L352.5,495 L258.75,495" fill="none" opacity="0.9" stroke="rgb(34, 121, 150)" stroke-width="3"/>
<path d="M352.5,836 l0,8 M348.5,840 l8,0" fill="rgb(34, 121, 150)" opacity="0.9" stroke="rgb(34, 121, 150)" stroke-width="2" transform="rotate(45 352.5 840)"/>
<path d="M570,832.5 L570,300 L403.125,300" fill="none" opacity="0.9" stroke="rgb(34, 121, 150)" stroke-width="3"/>
<path d="M570,828.5 l0,8 M566,832.5 l8,0" fill="rgb(34, 121, 150)" opacity="0.9" stroke="rgb(34, 121, 150)" stroke-width="2" transform="rotate(45 570 832.5)"/>
<path d="M418.125,315 L418.125,195 L358.125,195" fill="none" opacity="0.9" stroke="rgb(34, 121, 150)" stroke-width="3"/>
<circle cx="418.125" cy="315" fill="rgb(34, 121, 150)" opacity="0.9" r="3" stroke="rgb(34, 121, 150)" stroke-width="1"/>
<path d="M555,855 L555,315 L418.125,315" fill="none" opacity="0.9" stroke="rgb(34, 121, 150)" stroke-width="3"/>
<path d="M554.5,854.5 l0,1 l1,0 l0,-1 z" fill="red" opacity="0.9" stroke="red" stroke-width="3"/>
<text class="gene_0" transform="rotate(90 550,870)" x="550" y="870">
Myessoensis.XP_021368379.1
</text>
<path d="M273.75,510 L273.75,315 L418.125,315" fill="none" opacity="0.9" stroke="rgb(34, 121, 150)" stroke-width="3"/>
<path d="M273.75,506 l0,8 M269.75,510 l8,0" fill="rgb(34, 121, 150)" opacity="0.9" stroke="rgb(34, 121, 150)" stroke-width="2" transform="rotate(45 273.75 510)"/>
<path d="M1252.5,255 L1252.5,60 L850.3125,60" fill="none" opacity="0.9" stroke="rgb(34, 121, 150)" stroke-width="3"/>
<circle cx="1252.5" cy="255" fill="rgb(34, 121, 150)" opacity="0.9" r="3" stroke="rgb(34, 121, 150)" stroke-width="1"/>
<path d="M1492.5,757.5 L1492.5,255 L1252.5,255" fill="none" opacity="0.9" stroke="rgb(34, 121, 150)" stroke-width="3"/>
<path d="M1489.5,754.5 l0,6 l6,0 l0,-6 z" fill="rgb(34, 121, 150)" opacity="0.9" stroke="rgb(34, 121, 150)" stroke-width="3"/>
<path d="M1507.5,855 L1507.5,757.5 L1492.5,757.5" fill="none" opacity="0.9" stroke="rgb(34, 121, 150)" stroke-width="3"/>
<path d="M1507,854.5 l0,1 l1,0 l0,-1 z" fill="red" opacity="0.9" stroke="red" stroke-width="3"/>
<text class="gene_0" transform="rotate(90 1502.5,870)" x="1502.5" y="870">
Hvulgaris.XP_012562041.1
</text>
<path d="M1492.5,855 L1492.5,757.5 L1492.5,757.5" fill="none" opacity="0.9" stroke="rgb(34, 121, 150)" stroke-width="3"/>
<path d="M1492,854.5 l0,1 l1,0 l0,-1 z" fill="red" opacity="0.9" stroke="red" stroke-width="3"/>
<text class="gene_0" transform="rotate(90 1487.5,870)" x="1487.5" y="870">
Hvulgaris.XP_002154484.3
</text>
<path d="M945,390 L945,255 L1252.5,255" fill="none" opacity="0.9" stroke="rgb(34, 121, 150)" stroke-width="3"/>
<path d="M945,386 l0,8 M941,390 l8,0" fill="rgb(34, 121, 150)" opacity="0.9" stroke="rgb(34, 121, 150)" stroke-width="2" transform="rotate(45 945 390)"/>
<path d="M835.3125,75 L835.3125,45 L835.3125,45" fill="none" opacity="0.9" stroke="rgb(34, 121, 150)" stroke-width="3"/>
<circle cx="835.3125" cy="75" fill="rgb(34, 121, 150)" opacity="0.9" r="3" stroke="rgb(34, 121, 150)" stroke-width="1"/>
<path d="M1237.5,270 L1237.5,75 L835.3125,75" fill="none" opacity="0.9" stroke="rgb(34, 121, 150)" stroke-width="3"/>
<circle cx="1237.5" cy="270" fill="rgb(34, 121, 150)" opacity="0.9" r="3" stroke="rgb(34, 121, 150)" stroke-width="1"/>
<path d="M960,405 L960,270 L1237.5,270" fill="none" opacity="0.9" stroke="rgb(34, 121, 150)" stroke-width="3"/>
<circle cx="960" cy="405" fill="rgb(34, 121, 150)" opacity="0.9" r="3" stroke="rgb(34, 121, 150)" stroke-width="1"/>
<path d="M727.5,750 L727.5,405 L960,405" fill="none" opacity="0.9" stroke="rgb(34, 121, 150)" stroke-width="3"/>
<path d="M724.5,747 l0,6 l6,0 l0,-6 z" fill="rgb(34, 121, 150)" opacity="0.9" stroke="rgb(34, 121, 150)" stroke-width="3"/>
<path d="M727.5,765 L727.5,750 L727.5,750" fill="none" opacity="0.9" stroke="rgb(34, 121, 150)" stroke-width="3"/>
<path d="M724.5,762 l0,6 l6,0 l0,-6 z" fill="rgb(34, 121, 150)" opacity="0.9" stroke="rgb(34, 121, 150)" stroke-width="3"/>
<path d="M727.5,862.5 L727.5,765 L727.5,765" fill="none" opacity="0.9" stroke="rgb(34, 121, 150)" stroke-width="3"/>
<path d="M727,862 l0,1 l1,0 l0,-1 z" fill="red" opacity="0.9" stroke="red" stroke-width="3"/>
<text class="gene_0" transform="rotate(90 722.5,877.5)" x="722.5" y="877.5">
Nvectensis.XP_032239590.1
</text>
<path d="M742.5,862.5 L742.5,765 L727.5,765" fill="none" opacity="0.9" stroke="rgb(34, 121, 150)" stroke-width="3"/>
<path d="M742,862 l0,1 l1,0 l0,-1 z" fill="red" opacity="0.9" stroke="red" stroke-width="3"/>
<text class="gene_0" transform="rotate(90 737.5,877.5)" x="737.5" y="877.5">
Nvectensis.XP_032222198.1
</text>
<path d="M757.5,862.5 L757.5,750 L727.5,750" fill="none" opacity="0.9" stroke="rgb(34, 121, 150)" stroke-width="3"/>
<path d="M757,862 l0,1 l1,0 l0,-1 z" fill="red" opacity="0.9" stroke="red" stroke-width="3"/>
<text class="gene_0" transform="rotate(90 752.5,877.5)" x="752.5" y="877.5">
Nvectensis.XP_032222994.1
</text>
<path d="M1252.5,690 L1252.5,405 L960,405" fill="none" opacity="0.9" stroke="rgb(34, 121, 150)" stroke-width="3"/>
<path d="M1252.5,686 l0,8 M1248.5,690 l8,0" fill="rgb(34, 121, 150)" opacity="0.9" stroke="rgb(34, 121, 150)" stroke-width="2" transform="rotate(45 1252.5 690)"/>
<path d="M1477.5,802.5 L1477.5,270 L1237.5,270" fill="none" opacity="0.9" stroke="rgb(34, 121, 150)" stroke-width="3"/>
<path d="M1477.5,798.5 l0,8 M1473.5,802.5 l8,0" fill="rgb(34, 121, 150)" opacity="0.9" stroke="rgb(34, 121, 150)" stroke-width="2" transform="rotate(45 1477.5 802.5)"/>
<path d="M433.125,330 L433.125,75 L835.3125,75" fill="none" opacity="0.9" stroke="rgb(34, 121, 150)" stroke-width="3"/>
<path d="M433.125,326 l0,8 M429.125,330 l8,0" fill="rgb(34, 121, 150)" opacity="0.9" stroke="rgb(34, 121, 150)" stroke-width="2" transform="rotate(45 433.125 330)"/>
<path d="M820.3125,90 L820.3125,30 L820.3125,30" fill="none" opacity="0.9" stroke="rgb(34, 121, 150)" stroke-width="3"/>
<circle cx="820.3125" cy="90" fill="rgb(34, 121, 150)" opacity="0.9" r="3" stroke="rgb(34, 121, 150)" stroke-width="1"/>
<path d="M1222.5,285 L1222.5,90 L820.3125,90" fill="none" opacity="0.9" stroke="rgb(34, 121, 150)" stroke-width="3"/>
<circle cx="1222.5" cy="285" fill="rgb(34, 121, 150)" opacity="0.9" r="3" stroke="rgb(34, 121, 150)" stroke-width="1"/>
<path d="M975,420 L975,285 L1222.5,285" fill="none" opacity="0.9" stroke="rgb(34, 121, 150)" stroke-width="3"/>
<circle cx="975" cy="420" fill="rgb(34, 121, 150)" opacity="0.9" r="3" stroke="rgb(34, 121, 150)" stroke-width="1"/>
<path d="M1222.5,705 L1222.5,420 L975,420" fill="none" opacity="0.9" stroke="rgb(34, 121, 150)" stroke-width="3"/>
<path d="M1219.5,702 l0,6 l6,0 l0,-6 z" fill="rgb(34, 121, 150)" opacity="0.9" stroke="rgb(34, 121, 150)" stroke-width="3"/>
<path d="M1237.5,922.5 L1237.5,705 L1222.5,705" fill="none" opacity="0.9" stroke="rgb(34, 121, 150)" stroke-width="3"/>
<path d="M1237,922 l0,1 l1,0 l0,-1 z" fill="red" opacity="0.9" stroke="red" stroke-width="3"/>
<text class="gene_0" transform="rotate(90 1232.5,937.5)" x="1232.5" y="937.5">
Dgigantea.XP_028400885.1
</text>
<path d="M1222.5,922.5 L1222.5,705 L1222.5,705" fill="none" opacity="0.9" stroke="rgb(34, 121, 150)" stroke-width="3"/>
<path d="M1222,922 l0,1 l1,0 l0,-1 z" fill="red" opacity="0.9" stroke="red" stroke-width="3"/>
<text class="gene_0" transform="rotate(90 1217.5,937.5)" x="1217.5" y="937.5">
Dgigantea.XP_028400829.1
</text>
<path d="M772.5,825 L772.5,420 L975,420" fill="none" opacity="0.9" stroke="rgb(34, 121, 150)" stroke-width="3"/>
<path d="M772.5,821 l0,8 M768.5,825 l8,0" fill="rgb(34, 121, 150)" opacity="0.9" stroke="rgb(34, 121, 150)" stroke-width="2" transform="rotate(45 772.5 825)"/>
<path d="M1462.5,817.5 L1462.5,285 L1222.5,285" fill="none" opacity="0.9" stroke="rgb(34, 121, 150)" stroke-width="3"/>
<path d="M1462.5,813.5 l0,8 M1458.5,817.5 l8,0" fill="rgb(34, 121, 150)" opacity="0.9" stroke="rgb(34, 121, 150)" stroke-width="2" transform="rotate(45 1462.5 817.5)"/>
<path d="M448.125,345 L448.125,90 L820.3125,90" fill="none" opacity="0.9" stroke="rgb(34, 121, 150)" stroke-width="3"/>
<path d="M448.125,341 l0,8 M444.125,345 l8,0" fill="rgb(34, 121, 150)" opacity="0.9" stroke="rgb(34, 121, 150)" stroke-width="2" transform="rotate(45 448.125 345)"/>
<path d="M805.3125,105 L805.3125,15 L805.3125,15" fill="none" opacity="0.9" stroke="rgb(34, 121, 150)" stroke-width="3"/>
<circle cx="805.3125" cy="105" fill="rgb(34, 121, 150)" opacity="0.9" r="3" stroke="rgb(34, 121, 150)" stroke-width="1"/>
<path d="M1207.5,300 L1207.5,105 L805.3125,105" fill="none" opacity="0.9" stroke="rgb(34, 121, 150)" stroke-width="3"/>
<circle cx="1207.5" cy="300" fill="rgb(34, 121, 150)" opacity="0.9" r="3" stroke="rgb(34, 121, 150)" stroke-width="1"/>
<path d="M990,435 L990,300 L1207.5,300" fill="none" opacity="0.9" stroke="rgb(34, 121, 150)" stroke-width="3"/>
<circle cx="990" cy="435" fill="rgb(34, 121, 150)" opacity="0.9" r="3" stroke="rgb(34, 121, 150)" stroke-width="1"/>
<path d="M1207.5,922.5 L1207.5,435 L990,435" fill="none" opacity="0.9" stroke="rgb(34, 121, 150)" stroke-width="3"/>
<path d="M1207,922 l0,1 l1,0 l0,-1 z" fill="red" opacity="0.9" stroke="red" stroke-width="3"/>
<text class="gene_0" transform="rotate(90 1202.5,937.5)" x="1202.5" y="937.5">
Dgigantea.XP_028407245.1
</text>
<path d="M787.5,840 L787.5,435 L990,435" fill="none" opacity="0.9" stroke="rgb(34, 121, 150)" stroke-width="3"/>
<path d="M787.5,836 l0,8 M783.5,840 l8,0" fill="rgb(34, 121, 150)" opacity="0.9" stroke="rgb(34, 121, 150)" stroke-width="2" transform="rotate(45 787.5 840)"/>
<path d="M1447.5,832.5 L1447.5,300 L1207.5,300" fill="none" opacity="0.9" stroke="rgb(34, 121, 150)" stroke-width="3"/>
<path d="M1447.5,828.5 l0,8 M1443.5,832.5 l8,0" fill="rgb(34, 121, 150)" opacity="0.9" stroke="rgb(34, 121, 150)" stroke-width="2" transform="rotate(45 1447.5 832.5)"/>
<path d="M463.125,360 L463.125,105 L805.3125,105" fill="none" opacity="0.9" stroke="rgb(34, 121, 150)" stroke-width="3"/>
<path d="M463.125,356 l0,8 M459.125,360 l8,0" fill="rgb(34, 121, 150)" opacity="0.9" stroke="rgb(34, 121, 150)" stroke-width="2" transform="rotate(45 463.125 360)"/>
<path d="M790.3125,120 L790.3125,0 L790.3125,0" fill="none" opacity="0.9" stroke="rgb(34, 121, 150)" stroke-width="3"/>
<circle cx="790.3125" cy="120" fill="rgb(34, 121, 150)" opacity="0.9" r="3" stroke="rgb(34, 121, 150)" stroke-width="1"/>
<path d="M1192.5,315 L1192.5,120 L790.3125,120" fill="none" opacity="0.9" stroke="rgb(34, 121, 150)" stroke-width="3"/>
<circle cx="1192.5" cy="315" fill="rgb(34, 121, 150)" opacity="0.9" r="3" stroke="rgb(34, 121, 150)" stroke-width="1"/>
<path d="M1005,450 L1005,315 L1192.5,315" fill="none" opacity="0.9" stroke="rgb(34, 121, 150)" stroke-width="3"/>
<circle cx="1005" cy="450" fill="rgb(34, 121, 150)" opacity="0.9" r="3" stroke="rgb(34, 121, 150)" stroke-width="1"/>
<path d="M1132.5,765 L1132.5,450 L1005,450" fill="none" opacity="0.9" stroke="rgb(34, 121, 150)" stroke-width="3"/>
<path d="M1129.5,762 l0,6 l6,0 l0,-6 z" fill="rgb(34, 121, 150)" opacity="0.9" stroke="rgb(34, 121, 150)" stroke-width="3"/>
<path d="M1162.5,780 L1162.5,765 L1132.5,765" fill="none" opacity="0.9" stroke="rgb(34, 121, 150)" stroke-width="3"/>
<path d="M1159.5,777 l0,6 l6,0 l0,-6 z" fill="rgb(34, 121, 150)" opacity="0.9" stroke="rgb(34, 121, 150)" stroke-width="3"/>
<path d="M1177.5,795 L1177.5,780 L1162.5,780" fill="none" opacity="0.9" stroke="rgb(34, 121, 150)" stroke-width="3"/>
<path d="M1174.5,792 l0,6 l6,0 l0,-6 z" fill="rgb(34, 121, 150)" opacity="0.9" stroke="rgb(34, 121, 150)" stroke-width="3"/>
<path d="M1192.5,922.5 L1192.5,795 L1177.5,795" fill="none" opacity="0.9" stroke="rgb(34, 121, 150)" stroke-width="3"/>
<path d="M1192,922 l0,1 l1,0 l0,-1 z" fill="red" opacity="0.9" stroke="red" stroke-width="3"/>
<text class="gene_0" transform="rotate(90 1187.5,937.5)" x="1187.5" y="937.5">
Dgigantea.XP_028401686.1
</text>
<path d="M1177.5,922.5 L1177.5,795 L1177.5,795" fill="none" opacity="0.9" stroke="rgb(34, 121, 150)" stroke-width="3"/>
<path d="M1177,922 l0,1 l1,0 l0,-1 z" fill="red" opacity="0.9" stroke="red" stroke-width="3"/>
<text class="gene_0" transform="rotate(90 1172.5,937.5)" x="1172.5" y="937.5">
Dgigantea.XP_028411671.1
</text>
<path d="M1147.5,840 L1147.5,780 L1162.5,780" fill="none" opacity="0.9" stroke="rgb(34, 121, 150)" stroke-width="3"/>
<path d="M1144.5,837 l0,6 l6,0 l0,-6 z" fill="rgb(34, 121, 150)" opacity="0.9" stroke="rgb(34, 121, 150)" stroke-width="3"/>
<path d="M1162.5,922.5 L1162.5,840 L1147.5,840" fill="none" opacity="0.9" stroke="rgb(34, 121, 150)" stroke-width="3"/>
<path d="M1162,922 l0,1 l1,0 l0,-1 z" fill="red" opacity="0.9" stroke="red" stroke-width="3"/>
<text class="gene_0" transform="rotate(90 1157.5,937.5)" x="1157.5" y="937.5">
Dgigantea.XP_028416784.1
</text>
<path d="M1147.5,922.5 L1147.5,840 L1147.5,840" fill="none" opacity="0.9" stroke="rgb(34, 121, 150)" stroke-width="3"/>
<path d="M1147,922 l0,1 l1,0 l0,-1 z" fill="red" opacity="0.9" stroke="red" stroke-width="3"/>
<text class="gene_0" transform="rotate(90 1142.5,937.5)" x="1142.5" y="937.5">
Dgigantea.XP_028415829.1
</text>
<path d="M1117.5,885 L1117.5,765 L1132.5,765" fill="none" opacity="0.9" stroke="rgb(34, 121, 150)" stroke-width="3"/>
<path d="M1114.5,882 l0,6 l6,0 l0,-6 z" fill="rgb(34, 121, 150)" opacity="0.9" stroke="rgb(34, 121, 150)" stroke-width="3"/>
<path d="M1132.5,922.5 L1132.5,885 L1117.5,885" fill="none" opacity="0.9" stroke="rgb(34, 121, 150)" stroke-width="3"/>
<path d="M1132,922 l0,1 l1,0 l0,-1 z" fill="red" opacity="0.9" stroke="red" stroke-width="3"/>
<text class="gene_0" transform="rotate(90 1127.5,937.5)" x="1127.5" y="937.5">
Dgigantea.XP_028410025.1
</text>
<path d="M1117.5,922.5 L1117.5,885 L1117.5,885" fill="none" opacity="0.9" stroke="rgb(34, 121, 150)" stroke-width="3"/>
<path d="M1117,922 l0,1 l1,0 l0,-1 z" fill="red" opacity="0.9" stroke="red" stroke-width="3"/>
<text class="gene_0" transform="rotate(90 1112.5,937.5)" x="1112.5" y="937.5">
Dgigantea.XP_028410024.1
</text>
<path d="M802.5,855 L802.5,450 L1005,450" fill="none" opacity="0.9" stroke="rgb(34, 121, 150)" stroke-width="3"/>
<path d="M802.5,851 l0,8 M798.5,855 l8,0" fill="rgb(34, 121, 150)" opacity="0.9" stroke="rgb(34, 121, 150)" stroke-width="2" transform="rotate(45 802.5 855)"/>
<path d="M1432.5,847.5 L1432.5,315 L1192.5,315" fill="none" opacity="0.9" stroke="rgb(34, 121, 150)" stroke-width="3"/>
<path d="M1432.5,843.5 l0,8 M1428.5,847.5 l8,0" fill="rgb(34, 121, 150)" opacity="0.9" stroke="rgb(34, 121, 150)" stroke-width="2" transform="rotate(45 1432.5 847.5)"/>
<path d="M478.125,375 L478.125,120 L790.3125,120" fill="none" opacity="0.9" stroke="rgb(34, 121, 150)" stroke-width="3"/>
<path d="M478.125,371 l0,8 M474.125,375 l8,0" fill="rgb(34, 121, 150)" opacity="0.9" stroke="rgb(34, 121, 150)" stroke-width="2" transform="rotate(45 478.125 375)"/>
</g>
</svg>